<svg width="150" height="151" viewBox="0 0 150 151" fill="none" xmlns="http://www.w3.org/2000/svg">
<path d="M109.363 90.3165C107.498 89.3808 98.3231 84.8719 96.6149 84.244C94.9006 83.6223 93.6572 83.3145 92.4075 85.1859C91.1703 87.051 87.5908 91.2522 86.5044 92.4956C85.418 93.7453 84.3253 93.896 82.4602 92.9666C80.5951 92.0246 74.5791 90.0591 67.4515 83.7039C61.9064 78.7554 58.1574 72.6451 57.071 70.7738C55.9845 68.9087 56.9579 67.8976 57.8873 66.9682C58.7288 66.133 59.7587 64.7891 60.6881 63.7027C61.6238 62.61 61.9315 61.8313 62.5595 60.5816C63.1812 59.3382 62.8735 58.2518 62.4025 57.3161C61.9315 56.3804 58.2013 47.1931 56.6502 43.4566C55.1305 39.8206 53.5919 40.3167 52.449 40.2539C51.3626 40.2036 50.1192 40.1911 48.8695 40.1911C47.6261 40.1911 45.604 40.6558 43.8959 42.5272C42.1878 44.3923 37.3649 48.9074 37.3649 58.0948C37.3649 67.2759 44.0529 76.1493 44.9823 77.399C45.918 78.6424 58.1448 97.4944 76.8649 105.576C81.3173 107.498 84.7901 108.647 87.5029 109.501C91.9742 110.927 96.0435 110.726 99.2525 110.242C102.838 109.709 110.292 105.727 111.85 101.369C113.407 97.0108 113.407 93.2743 112.936 92.4956C112.471 91.7169 111.234 91.2522 109.363 90.3165ZM75.3138 136.806H75.2887C64.172 136.807 53.2596 133.818 43.6949 128.152L41.4279 126.809L17.9352 132.975L24.2024 110.067L22.7266 107.718C16.5124 97.8226 13.2249 86.3708 13.2441 74.6861C13.2504 40.4611 41.1014 12.6164 75.3389 12.6164C91.9176 12.6164 107.504 19.0846 119.222 30.8153C125.004 36.5715 129.587 43.4172 132.705 50.9562C135.824 58.4952 137.416 66.5778 137.39 74.7363C137.371 108.961 109.526 136.806 75.3138 136.806ZM128.146 21.9042C121.227 14.9395 112.994 9.41707 103.925 5.65712C94.8562 1.89716 85.1313 -0.0255981 75.3138 0.000257331C34.1496 0.000257331 0.646821 33.5031 0.627981 74.6798C0.627981 87.8423 4.06304 100.691 10.6003 112.013L0 150.716L39.5942 140.329C50.5437 146.294 62.8134 149.421 75.2824 149.422H75.3138C116.472 149.422 149.981 115.919 150 74.7363C150.03 64.9227 148.114 55.2004 144.363 46.132C140.612 37.0635 135.1 28.8288 128.146 21.9042Z" fill="black"/>
</svg>
