<svg width="150" height="151" viewBox="0 0 150 151" fill="none" xmlns="http://www.w3.org/2000/svg">
<path d="M146.868 39.1288C145.999 36.0136 144.341 33.1754 142.054 30.8885C139.767 28.6016 136.929 26.9433 133.814 26.0739C122.122 22.9415 75.0667 22.9415 75.0667 22.9415C75.0667 22.9415 28.1306 22.879 16.3199 26.0739C13.2048 26.9433 10.3666 28.6016 8.07966 30.8885C5.79275 33.1754 4.13445 36.0136 3.26506 39.1288C1.04874 51.0989 -0.0439129 63.25 0.00135045 75.4235C-0.0353561 87.5511 1.05726 99.6557 3.26506 111.581C4.13445 114.696 5.79275 117.534 8.07966 119.821C10.3666 122.108 13.2048 123.766 16.3199 124.636C27.9993 127.774 75.0667 127.774 75.0667 127.774C75.0667 127.774 121.997 127.774 133.814 124.636C136.929 123.766 139.767 122.108 142.054 119.821C144.341 117.534 145.999 114.696 146.868 111.581C149.03 99.6514 150.077 87.5468 149.995 75.4235C150.085 63.2543 149.039 51.1032 146.868 39.1288ZM60.0487 97.8756V52.9026L99.2132 75.4235L60.0487 97.8756Z" fill="black"/>
</svg>
