<svg width="150" height="151" viewBox="0 0 150 151" fill="none" xmlns="http://www.w3.org/2000/svg">
<g clip-path="url(#clip0_2614_814)">
<path d="M43.9381 0.881954C35.9581 1.25845 30.5086 2.53195 25.7446 4.40395C20.8141 6.32545 16.6351 8.90395 12.4771 13.077C8.31912 17.25 5.75862 21.432 3.85062 26.37C2.00412 31.1445 0.753122 36.5985 0.400622 44.583C0.0481217 52.5675 -0.0298784 55.134 0.00912161 75.501C0.0481216 95.868 0.138122 98.421 0.525122 106.422C0.906122 114.4 2.17512 119.848 4.04712 124.614C5.97162 129.544 8.54712 133.722 12.7216 137.881C16.8961 142.041 21.0751 144.595 26.0251 146.506C30.7951 148.35 36.2506 149.607 44.2336 149.956C52.2166 150.306 54.7861 150.387 75.1471 150.348C95.5081 150.309 98.0716 150.219 106.071 149.839C114.071 149.46 119.49 148.182 124.257 146.319C129.188 144.39 133.368 141.819 137.525 137.643C141.681 133.467 144.24 129.282 146.147 124.341C147.995 119.571 149.25 114.115 149.597 106.138C149.946 98.133 150.029 95.577 149.99 75.213C149.951 54.849 149.859 52.296 149.48 44.298C149.1 36.3 147.83 30.8685 145.959 26.1C144.032 21.1695 141.459 16.995 137.286 12.8325C133.113 8.66995 128.925 6.11245 123.986 4.21045C119.213 2.36395 113.76 1.10545 105.777 0.760454C97.7941 0.415454 95.2246 0.326954 74.8561 0.365954C54.4876 0.404954 51.9376 0.491954 43.9381 0.881954ZM44.8141 136.464C37.5016 136.146 33.5311 134.931 30.8851 133.914C27.3811 132.564 24.8851 130.932 22.2481 128.32C19.6111 125.709 17.9911 123.204 16.6231 119.707C15.5956 117.061 14.3581 113.095 14.0161 105.783C13.6441 97.8795 13.5661 95.5065 13.5226 75.483C13.4791 55.4595 13.5556 53.0895 13.9021 45.183C14.2141 37.8765 15.4366 33.9015 16.4521 31.257C17.8021 27.7485 19.4281 25.257 22.0456 22.6215C24.6631 19.986 27.1606 18.363 30.6601 16.995C33.3031 15.963 37.2691 14.736 44.5786 14.388C52.4881 14.013 54.8581 13.938 74.8786 13.8945C94.8991 13.851 97.2751 13.926 105.188 14.274C112.494 14.592 116.471 15.8025 119.112 16.824C122.618 18.174 125.112 19.7955 127.748 22.4175C130.383 25.0395 132.008 27.528 133.376 31.035C134.409 33.6705 135.636 37.635 135.981 44.949C136.358 52.8585 136.443 55.23 136.479 75.249C136.515 95.268 136.445 97.6455 136.098 105.549C135.779 112.861 134.567 116.833 133.548 119.482C132.198 122.985 130.571 125.482 127.952 128.116C125.333 130.75 122.838 132.373 119.337 133.741C116.697 134.772 112.727 136.002 105.423 136.35C97.5136 136.722 95.1436 136.8 75.1156 136.843C55.0876 136.887 52.7251 136.806 44.8156 136.464M105.956 35.2725C105.959 37.0526 106.489 38.7919 107.481 40.2704C108.472 41.7488 109.88 42.9 111.526 43.5784C113.172 44.2567 114.982 44.4318 116.727 44.0813C118.473 43.7309 120.075 42.8708 121.331 41.6097C122.588 40.3487 123.442 38.7433 123.786 36.9967C124.13 35.2501 123.948 33.4407 123.264 31.7974C122.58 30.154 121.423 28.7505 119.941 27.7644C118.459 26.7783 116.718 26.2539 114.938 26.2575C112.551 26.2622 110.264 27.2146 108.58 28.9052C106.896 30.5957 105.952 32.886 105.956 35.2725ZM36.4906 75.432C36.5326 96.702 53.8066 113.905 75.0721 113.865C96.3376 113.824 113.553 96.552 113.513 75.282C113.472 54.012 96.1936 36.804 74.9251 36.846C53.6566 36.888 36.4501 54.165 36.4906 75.432ZM49.9996 75.405C49.9898 70.4603 51.4465 65.6239 54.1855 61.5071C56.9244 57.3904 60.8226 54.1783 65.3871 52.277C69.9516 50.3758 74.9774 49.8707 79.8289 50.8258C84.6804 51.7808 89.1398 54.1531 92.643 57.6425C96.1463 61.132 98.5362 65.5819 99.5105 70.4296C100.485 75.2773 99.9996 80.305 98.1164 84.877C96.2332 89.449 93.0366 93.3599 88.9308 96.1151C84.8249 98.8703 79.9942 100.346 75.0496 100.356C71.7664 100.363 68.514 99.7229 65.4781 98.4727C62.4422 97.2224 59.6824 95.3864 57.3562 93.0694C55.03 90.7524 53.1831 87.9998 51.9208 84.9689C50.6585 81.938 50.0057 78.6882 49.9996 75.405Z" fill="url(#paint0_linear_2614_814)"/>
</g>
<defs>
<linearGradient id="paint0_linear_2614_814" x1="-3.35924e-06" y1="-23.1677" x2="297.973" y2="161.19" gradientUnits="userSpaceOnUse">
<stop stop-color="#D4D4D4"/>
<stop offset="1" stop-color="#5D5D5D"/>
</linearGradient>
<clipPath id="clip0_2614_814">
<rect width="150" height="150" fill="white" transform="translate(0 0.357422)"/>
</clipPath>
</defs>
</svg>
